<svg xmlns="http://www.w3.org/2000/svg" xmlns:xlink="http://www.w3.org/1999/xlink" width="500" zoomAndPan="magnify" viewBox="0 0 375 374.999991" height="500" preserveAspectRatio="xMidYMid meet" version="1.0"><defs><clipPath id="317903588e"><path d="M 62.59375 73 L 302 73 L 302 312.34375 L 62.59375 312.34375 Z M 62.59375 73 " clip-rule="nonzero"/></clipPath></defs><path fill="#ffffff" d="M 128.597656 202.925781 L 231.71875 99.796875 L 275.195312 143.273438 L 172.066406 246.394531 L 123.167969 251.828125 Z M 128.597656 202.925781 " fill-opacity="1" fill-rule="nonzero"/><path fill="#ffffff" d="M 244.890625 86.617188 L 262.667969 68.847656 C 263.382812 68.136719 264.160156 67.5 265 66.941406 C 265.839844 66.382812 266.726562 65.914062 267.660156 65.527344 C 268.59375 65.144531 269.554688 64.855469 270.542969 64.660156 C 271.53125 64.460938 272.53125 64.363281 273.539062 64.363281 C 274.546875 64.363281 275.546875 64.460938 276.535156 64.660156 C 277.523438 64.855469 278.484375 65.144531 279.417969 65.527344 C 280.347656 65.914062 281.234375 66.382812 282.074219 66.941406 C 282.914062 67.5 283.691406 68.136719 284.40625 68.847656 L 306.136719 90.585938 C 306.851562 91.300781 307.484375 92.074219 308.046875 92.914062 C 308.605469 93.753906 309.078125 94.640625 309.460938 95.574219 C 309.847656 96.503906 310.136719 97.464844 310.335938 98.457031 C 310.53125 99.445312 310.628906 100.445312 310.628906 101.453125 C 310.628906 102.460938 310.53125 103.460938 310.335938 104.453125 C 310.136719 105.441406 309.847656 106.402344 309.460938 107.335938 C 309.078125 108.265625 308.605469 109.152344 308.046875 109.992188 C 307.484375 110.832031 306.851562 111.609375 306.136719 112.324219 L 288.367188 130.09375 Z M 244.890625 86.617188 " fill-opacity="1" fill-rule="nonzero"/><g clip-path="url(#317903588e)"><path fill="#ffffff" d="M 292.910156 197.242188 C 292.332031 197.242188 291.753906 197.296875 291.183594 197.410156 C 290.613281 197.523438 290.058594 197.691406 289.523438 197.914062 C 288.984375 198.136719 288.472656 198.410156 287.992188 198.734375 C 287.507812 199.054688 287.058594 199.421875 286.648438 199.835938 C 286.238281 200.246094 285.871094 200.695312 285.546875 201.175781 C 285.222656 201.660156 284.949219 202.171875 284.726562 202.707031 C 284.503906 203.246094 284.335938 203.800781 284.222656 204.371094 C 284.109375 204.941406 284.054688 205.515625 284.054688 206.097656 L 284.054688 285.824219 C 284.054688 286.40625 283.996094 286.984375 283.882812 287.554688 C 283.769531 288.125 283.601562 288.675781 283.378906 289.214844 C 283.15625 289.753906 282.882812 290.261719 282.558594 290.746094 C 282.238281 291.230469 281.871094 291.675781 281.457031 292.089844 C 281.046875 292.5 280.601562 292.867188 280.117188 293.191406 C 279.632812 293.515625 279.121094 293.785156 278.585938 294.007812 C 278.046875 294.230469 277.492188 294.398438 276.921875 294.511719 C 276.351562 294.625 275.777344 294.683594 275.195312 294.683594 L 89.167969 294.683594 C 88.585938 294.683594 88.007812 294.625 87.4375 294.511719 C 86.867188 294.398438 86.316406 294.230469 85.777344 294.007812 C 85.238281 293.785156 84.730469 293.515625 84.246094 293.191406 C 83.761719 292.867188 83.316406 292.5 82.902344 292.089844 C 82.492188 291.675781 82.125 291.230469 81.800781 290.746094 C 81.480469 290.261719 81.207031 289.753906 80.984375 289.214844 C 80.761719 288.675781 80.59375 288.125 80.480469 287.554688 C 80.367188 286.984375 80.308594 286.40625 80.308594 285.824219 L 80.308594 99.796875 C 80.308594 99.214844 80.367188 98.640625 80.480469 98.070312 C 80.59375 97.5 80.761719 96.945312 80.984375 96.40625 C 81.207031 95.871094 81.480469 95.359375 81.800781 94.875 C 82.125 94.390625 82.492188 93.945312 82.902344 93.535156 C 83.316406 93.121094 83.761719 92.753906 84.246094 92.433594 C 84.730469 92.109375 85.238281 91.835938 85.777344 91.613281 C 86.316406 91.390625 86.867188 91.222656 87.4375 91.109375 C 88.007812 90.996094 88.585938 90.9375 89.167969 90.9375 L 168.894531 90.9375 C 169.476562 90.9375 170.050781 90.882812 170.621094 90.769531 C 171.191406 90.65625 171.746094 90.488281 172.285156 90.265625 C 172.820312 90.042969 173.332031 89.769531 173.816406 89.445312 C 174.296875 89.121094 174.746094 88.753906 175.15625 88.34375 C 175.570312 87.933594 175.9375 87.484375 176.257812 87.003906 C 176.582031 86.519531 176.855469 86.007812 177.078125 85.46875 C 177.300781 84.933594 177.46875 84.378906 177.582031 83.808594 C 177.695312 83.238281 177.75 82.664062 177.75 82.082031 C 177.75 81.5 177.695312 80.921875 177.582031 80.351562 C 177.46875 79.78125 177.300781 79.226562 177.078125 78.691406 C 176.855469 78.152344 176.582031 77.644531 176.257812 77.160156 C 175.9375 76.675781 175.570312 76.226562 175.15625 75.816406 C 174.746094 75.40625 174.296875 75.039062 173.816406 74.714844 C 173.332031 74.390625 172.820312 74.117188 172.285156 73.894531 C 171.746094 73.671875 171.191406 73.503906 170.621094 73.390625 C 170.050781 73.277344 169.476562 73.222656 168.894531 73.222656 L 89.167969 73.222656 C 88.296875 73.222656 87.429688 73.265625 86.5625 73.351562 C 85.695312 73.433594 84.835938 73.5625 83.984375 73.734375 C 83.128906 73.902344 82.285156 74.113281 81.453125 74.367188 C 80.621094 74.617188 79.800781 74.910156 78.996094 75.246094 C 78.191406 75.578125 77.40625 75.949219 76.640625 76.359375 C 75.871094 76.769531 75.125 77.21875 74.402344 77.699219 C 73.679688 78.183594 72.980469 78.703125 72.308594 79.253906 C 71.636719 79.804688 70.992188 80.390625 70.375 81.003906 C 69.761719 81.621094 69.175781 82.265625 68.625 82.9375 C 68.070312 83.609375 67.554688 84.308594 67.070312 85.03125 C 66.585938 85.757812 66.140625 86.503906 65.730469 87.269531 C 65.320312 88.039062 64.949219 88.824219 64.613281 89.628906 C 64.28125 90.429688 63.988281 91.25 63.734375 92.082031 C 63.484375 92.914062 63.273438 93.757812 63.101562 94.613281 C 62.933594 95.464844 62.804688 96.328125 62.71875 97.191406 C 62.632812 98.058594 62.59375 98.925781 62.59375 99.796875 L 62.59375 285.824219 C 62.59375 286.695312 62.632812 287.5625 62.71875 288.429688 C 62.804688 289.296875 62.933594 290.15625 63.101562 291.007812 C 63.273438 291.863281 63.484375 292.707031 63.734375 293.539062 C 63.988281 294.371094 64.28125 295.191406 64.613281 295.996094 C 64.949219 296.800781 65.320312 297.585938 65.730469 298.351562 C 66.140625 299.121094 66.585938 299.867188 67.070312 300.589844 C 67.554688 301.3125 68.070312 302.011719 68.625 302.683594 C 69.175781 303.355469 69.761719 304 70.375 304.617188 C 70.992188 305.230469 71.636719 305.816406 72.308594 306.367188 C 72.980469 306.921875 73.679688 307.4375 74.402344 307.921875 C 75.125 308.40625 75.871094 308.851562 76.640625 309.261719 C 77.40625 309.671875 78.191406 310.042969 78.996094 310.378906 C 79.800781 310.710938 80.621094 311.003906 81.453125 311.257812 C 82.285156 311.507812 83.128906 311.71875 83.984375 311.890625 C 84.835938 312.058594 85.695312 312.1875 86.5625 312.273438 C 87.429688 312.359375 88.296875 312.402344 89.167969 312.402344 L 275.195312 312.402344 C 276.066406 312.402344 276.933594 312.359375 277.800781 312.273438 C 278.664062 312.1875 279.527344 312.058594 280.378906 311.890625 C 281.234375 311.71875 282.078125 311.507812 282.910156 311.257812 C 283.742188 311.003906 284.5625 310.710938 285.363281 310.378906 C 286.167969 310.042969 286.953125 309.671875 287.722656 309.261719 C 288.488281 308.851562 289.234375 308.40625 289.960938 307.921875 C 290.683594 307.4375 291.382812 306.921875 292.054688 306.367188 C 292.726562 305.816406 293.371094 305.230469 293.988281 304.617188 C 294.601562 304 295.1875 303.355469 295.738281 302.683594 C 296.289062 302.011719 296.808594 301.3125 297.292969 300.589844 C 297.773438 299.867188 298.222656 299.121094 298.632812 298.351562 C 299.042969 297.585938 299.414062 296.800781 299.746094 295.996094 C 300.082031 295.191406 300.375 294.371094 300.625 293.539062 C 300.878906 292.707031 301.089844 291.863281 301.257812 291.007812 C 301.429688 290.15625 301.558594 289.296875 301.640625 288.429688 C 301.726562 287.5625 301.769531 286.695312 301.769531 285.824219 L 301.769531 206.097656 C 301.769531 205.515625 301.714844 204.941406 301.601562 204.371094 C 301.488281 203.800781 301.320312 203.246094 301.097656 202.707031 C 300.875 202.171875 300.601562 201.660156 300.277344 201.175781 C 299.953125 200.695312 299.585938 200.246094 299.175781 199.835938 C 298.765625 199.421875 298.316406 199.054688 297.832031 198.734375 C 297.351562 198.410156 296.839844 198.136719 296.300781 197.914062 C 295.765625 197.691406 295.210938 197.523438 294.640625 197.410156 C 294.070312 197.296875 293.492188 197.242188 292.910156 197.242188 Z M 292.910156 197.242188 " fill-opacity="1" fill-rule="nonzero"/></g></svg>