<svg xmlns="http://www.w3.org/2000/svg" xmlns:xlink="http://www.w3.org/1999/xlink" width="500" zoomAndPan="magnify" viewBox="0 0 375 374.999991" height="500" preserveAspectRatio="xMidYMid meet" version="1.0"><defs><clipPath id="18fc2a3d6d"><path d="M 56.644531 45.496094 L 340.652344 45.496094 L 340.652344 329.503906 L 56.644531 329.503906 Z M 56.644531 45.496094 " clip-rule="nonzero"/></clipPath><clipPath id="7128642b91"><path d="M 198.648438 45.496094 C 120.222656 45.496094 56.644531 109.074219 56.644531 187.5 C 56.644531 265.925781 120.222656 329.503906 198.648438 329.503906 C 277.074219 329.503906 340.652344 265.925781 340.652344 187.5 C 340.652344 109.074219 277.074219 45.496094 198.648438 45.496094 Z M 198.648438 45.496094 " clip-rule="nonzero"/></clipPath><clipPath id="87c92c3787"><path d="M 198.648438 104.242188 L 290.148438 104.242188 L 290.148438 270.742188 L 198.648438 270.742188 Z M 198.648438 104.242188 " clip-rule="nonzero"/></clipPath><clipPath id="1d83176858"><path d="M 84.765625 134.898438 L 189.765625 134.898438 L 189.765625 239.898438 L 84.765625 239.898438 Z M 84.765625 134.898438 " clip-rule="nonzero"/></clipPath></defs><g clip-path="url(#18fc2a3d6d)"><g clip-path="url(#7128642b91)"><path fill="#004aad" d="M 56.644531 45.496094 L 340.652344 45.496094 L 340.652344 329.503906 L 56.644531 329.503906 Z M 56.644531 45.496094 " fill-opacity="1" fill-rule="nonzero"/></g></g><path fill="#ffffff" d="M 218.152344 172.957031 C 212.070312 168.503906 211.613281 161.136719 211.558594 159.703125 C 211.320312 153.210938 214.914062 148.773438 220.917969 141.359375 C 229.015625 131.359375 237.210938 126.34375 242.691406 123.066406 C 253.070312 116.847656 257.457031 116.96875 259.71875 117.289062 C 260.808594 117.441406 265.285156 118.179688 269.132812 121.683594 C 275.28125 127.277344 275.585938 136.117188 275.730469 140.1875 C 277.675781 195.070312 277.5 200.375 277.074219 208.742188 C 275.648438 236.691406 275.1875 247.621094 266.480469 253.851562 C 262.6875 256.566406 258.597656 257.480469 255.605469 257.816406 C 253.371094 257.398438 250.273438 256.5 247.320312 254.332031 C 235.222656 245.464844 236.921875 223.726562 238.515625 206.125 C 240.613281 182.910156 243.589844 163.125 243.589844 163.125 C 243.589844 163.125 237.503906 174.742188 228.199219 175.925781 C 223.09375 176.578125 218.925781 173.523438 218.152344 172.960938 Z M 218.152344 172.957031 " fill-opacity="1" fill-rule="nonzero"/><g clip-path="url(#87c92c3787)"><path fill="#ffffff" d="M 224.652344 161.839844 C 224.535156 161.753906 224.417969 161.664062 224.300781 161.574219 C 225.171875 162.246094 226.039062 162.914062 226.90625 163.585938 C 225.929688 162.816406 225.058594 161.941406 224.289062 160.960938 C 224.960938 161.832031 225.632812 162.699219 226.304688 163.570312 C 225.445312 162.449219 224.746094 161.230469 224.1875 159.933594 C 224.621094 160.960938 225.050781 161.984375 225.484375 163.011719 C 224.820312 161.421875 224.371094 159.757812 224.132812 158.050781 L 224.59375 161.476562 C 224.402344 160.03125 224.371094 158.578125 224.550781 157.128906 C 224.398438 158.273438 224.246094 159.414062 224.089844 160.554688 C 224.285156 159.140625 224.675781 157.777344 225.230469 156.464844 C 224.796875 157.488281 224.367188 158.515625 223.933594 159.539062 C 225.105469 156.832031 226.855469 154.425781 228.648438 152.101562 C 227.976562 152.96875 227.304688 153.839844 226.632812 154.707031 C 229.070312 151.566406 231.566406 148.453125 234.332031 145.589844 C 236.734375 143.101562 239.320312 140.792969 242.054688 138.671875 C 241.1875 139.34375 240.316406 140.011719 239.449219 140.683594 C 241.964844 138.746094 244.601562 136.976562 247.308594 135.320312 C 250.390625 133.433594 253.519531 131.613281 256.851562 130.203125 C 255.824219 130.636719 254.800781 131.070312 253.773438 131.5 C 255.726562 130.683594 257.757812 129.984375 259.867188 129.699219 C 258.722656 129.851562 257.582031 130.003906 256.441406 130.160156 C 257.496094 130.023438 258.554688 130.011719 259.609375 130.148438 C 258.46875 129.996094 257.328125 129.84375 256.1875 129.6875 C 257.761719 129.902344 259.292969 130.347656 260.757812 130.957031 C 259.730469 130.523438 258.703125 130.089844 257.679688 129.65625 C 259.105469 130.269531 260.445312 131.042969 261.675781 131.992188 C 260.804688 131.320312 259.9375 130.648438 259.066406 129.976562 C 260.171875 130.855469 261.15625 131.847656 262.019531 132.957031 C 261.347656 132.089844 260.675781 131.222656 260.007812 130.351562 C 260.976562 131.632812 261.761719 133.023438 262.394531 134.5 C 261.964844 133.472656 261.53125 132.449219 261.097656 131.421875 C 262.039062 133.675781 262.605469 136.050781 262.929688 138.464844 C 262.777344 137.324219 262.625 136.179688 262.472656 135.042969 C 262.695312 136.75 262.789062 138.464844 262.847656 140.1875 C 262.964844 143.410156 263.074219 146.636719 263.1875 149.859375 C 263.375 155.296875 263.558594 160.726562 263.730469 166.164062 C 263.964844 173.464844 264.1875 180.765625 264.339844 188.070312 C 264.425781 192.097656 264.492188 196.125 264.464844 200.152344 C 264.445312 202.492188 264.382812 204.828125 264.273438 207.160156 C 263.878906 215.527344 263.554688 223.933594 262.667969 232.265625 C 262.5625 233.238281 262.449219 234.207031 262.320312 235.175781 C 262.472656 234.035156 262.628906 232.894531 262.78125 231.753906 C 262.28125 235.472656 261.601562 239.234375 260.140625 242.710938 C 260.570312 241.6875 261.003906 240.660156 261.4375 239.636719 C 260.796875 241.144531 260 242.578125 258.996094 243.875 C 259.667969 243.007812 260.339844 242.136719 261.011719 241.269531 C 260.121094 242.414062 259.085938 243.429688 257.945312 244.316406 C 258.8125 243.644531 259.679688 242.976562 260.550781 242.304688 C 259.171875 243.363281 257.664062 244.230469 256.066406 244.921875 C 257.089844 244.488281 258.117188 244.054688 259.140625 243.621094 C 257.132812 244.464844 255.03125 245.011719 252.875 245.308594 C 254.019531 245.15625 255.160156 245.003906 256.300781 244.851562 C 256.066406 244.878906 255.835938 244.910156 255.605469 244.9375 C 256.746094 245.089844 257.886719 245.242188 259.027344 245.394531 C 257.519531 245.109375 256.050781 244.683594 254.628906 244.097656 C 255.65625 244.53125 256.679688 244.964844 257.707031 245.398438 C 256.171875 244.746094 254.734375 243.921875 253.414062 242.90625 C 254.28125 243.574219 255.148438 244.246094 256.019531 244.917969 C 254.75 243.921875 253.621094 242.773438 252.632812 241.492188 C 253.304688 242.363281 253.976562 243.230469 254.644531 244.097656 C 253.441406 242.515625 252.480469 240.777344 251.699219 238.949219 C 252.132812 239.976562 252.566406 241 252.996094 242.027344 C 251.664062 238.835938 250.898438 235.449219 250.429688 232.027344 C 250.582031 233.171875 250.738281 234.3125 250.890625 235.453125 C 249.839844 227.550781 250.28125 219.507812 250.917969 211.589844 C 251.671875 202.203125 252.660156 192.832031 253.777344 183.480469 C 254.277344 179.300781 254.808594 175.121094 255.367188 170.945312 C 255.214844 172.089844 255.058594 173.230469 254.90625 174.371094 C 255.257812 171.757812 255.613281 169.148438 256.007812 166.542969 C 256.542969 164.832031 256.621094 163.121094 256.238281 161.40625 C 256.160156 159.695312 255.648438 158.097656 254.707031 156.621094 C 254.039062 155.75 253.367188 154.882812 252.695312 154.011719 C 251.527344 152.757812 250.144531 151.871094 248.550781 151.351562 C 247.546875 150.765625 246.464844 150.472656 245.300781 150.472656 C 243.589844 150.085938 241.878906 150.164062 240.164062 150.703125 C 237.054688 151.707031 234.035156 153.640625 232.46875 156.621094 C 231.667969 158.140625 230.660156 159.578125 229.613281 160.9375 C 230.285156 160.070312 230.957031 159.199219 231.625 158.332031 C 230.140625 160.242188 228.472656 162.007812 226.558594 163.496094 C 227.429688 162.824219 228.296875 162.152344 229.167969 161.480469 C 227.941406 162.417969 226.628906 163.226562 225.210938 163.835938 C 226.238281 163.402344 227.261719 162.972656 228.289062 162.539062 C 227.160156 163.007812 225.988281 163.339844 224.777344 163.503906 C 225.917969 163.351562 227.058594 163.199219 228.199219 163.042969 C 227.207031 163.160156 226.21875 163.152344 225.226562 163.035156 L 228.648438 163.492188 C 227.378906 163.320312 226.15625 162.96875 224.972656 162.476562 C 226 162.910156 227.023438 163.339844 228.050781 163.773438 C 226.847656 163.257812 225.707031 162.609375 224.652344 161.835938 C 223.171875 160.894531 221.578125 160.382812 219.863281 160.304688 C 218.152344 159.921875 216.441406 160 214.726562 160.535156 C 213.050781 160.933594 211.59375 161.703125 210.347656 162.84375 C 208.945312 163.75 207.839844 164.953125 207.03125 166.453125 C 205.453125 169.445312 204.660156 173.0625 205.734375 176.378906 C 206.164062 177.402344 206.597656 178.429688 207.03125 179.453125 C 208.175781 181.390625 209.714844 182.929688 211.652344 184.074219 C 212.300781 184.550781 212.976562 184.980469 213.6875 185.359375 C 215.109375 186.125 216.636719 186.699219 218.125 187.3125 C 218.847656 187.609375 219.582031 187.867188 220.335938 188.054688 C 222.144531 188.5 224.035156 188.71875 225.882812 188.855469 C 227.796875 189 229.75 188.605469 231.621094 188.339844 C 233.988281 188 236.105469 187.011719 238.289062 186.042969 C 239.464844 185.519531 240.578125 184.882812 241.621094 184.125 C 243.445312 182.808594 245.285156 181.425781 246.90625 179.847656 C 249.199219 177.617188 251.175781 175 252.992188 172.378906 C 253.605469 171.488281 254.203125 170.574219 254.707031 169.617188 C 246.859375 166.308594 239.015625 163.003906 231.167969 159.695312 C 230.527344 163.96875 229.964844 168.257812 229.398438 172.542969 C 228.367188 180.332031 227.4375 188.140625 226.625 195.957031 C 225.773438 204.097656 224.917969 212.273438 224.613281 220.457031 C 224.476562 224.105469 224.46875 227.761719 224.722656 231.40625 C 224.925781 234.257812 225.308594 237.105469 225.746094 239.929688 C 226 241.574219 226.332031 243.207031 226.769531 244.8125 C 227.472656 247.386719 228.527344 249.824219 229.597656 252.269531 C 230.199219 253.648438 230.917969 254.976562 231.769531 256.21875 C 233.167969 258.257812 234.710938 260.339844 236.53125 262.042969 C 237.84375 263.265625 239.3125 264.332031 240.746094 265.398438 C 241.652344 266.066406 242.625 266.65625 243.636719 267.152344 C 246.210938 268.410156 248.9375 269.566406 251.761719 270.148438 C 252.46875 270.292969 253.152344 270.359375 253.890625 270.460938 C 254.960938 270.601562 255.304688 270.730469 256.121094 270.625 C 257.628906 270.4375 259.140625 270.257812 260.636719 270.003906 C 261.507812 269.851562 262.371094 269.664062 263.21875 269.425781 C 264.703125 269.007812 266.101562 268.40625 267.523438 267.804688 C 269.03125 267.167969 270.503906 266.550781 271.894531 265.683594 C 273.390625 264.753906 274.773438 263.609375 276.152344 262.523438 C 276.507812 262.246094 276.855469 261.960938 277.1875 261.660156 C 277.84375 261.070312 278.453125 260.433594 279.007812 259.746094 C 280.214844 258.253906 281.476562 256.726562 282.457031 255.0625 C 283.207031 253.792969 283.753906 252.445312 284.324219 251.09375 C 284.933594 249.644531 285.535156 248.21875 285.984375 246.710938 C 286.671875 244.410156 287.117188 242.039062 287.464844 239.664062 C 288.0625 235.59375 288.539062 231.519531 288.859375 227.417969 C 289.375 220.847656 289.679688 214.261719 290 207.679688 C 290.078125 206.113281 290.140625 204.550781 290.175781 202.980469 C 290.226562 200.828125 290.230469 198.675781 290.21875 196.523438 C 290.199219 193.171875 290.136719 189.820312 290.058594 186.46875 C 289.941406 181.253906 289.792969 176.039062 289.632812 170.820312 C 289.398438 163.15625 289.136719 155.492188 288.871094 147.832031 C 288.746094 144.203125 288.730469 140.550781 288.429688 136.929688 C 288.210938 134.351562 287.890625 131.761719 287.363281 129.226562 C 286.910156 127.058594 286.144531 125.066406 285.285156 123.03125 C 284.734375 121.726562 284.203125 120.425781 283.488281 119.199219 C 282.527344 117.554688 281.285156 116.058594 280.105469 114.578125 C 279.507812 113.828125 278.859375 113.125 278.140625 112.484375 C 276.988281 111.449219 275.71875 110.527344 274.480469 109.597656 C 274.042969 109.269531 273.589844 108.957031 273.125 108.667969 C 272.339844 108.1875 271.519531 107.777344 270.679688 107.414062 C 268.992188 106.683594 267.296875 105.894531 265.527344 105.378906 C 263.589844 104.816406 261.539062 104.617188 259.554688 104.378906 C 258.957031 104.308594 258.363281 104.269531 257.761719 104.285156 C 257.382812 104.296875 257.007812 104.328125 256.632812 104.371094 C 255.066406 104.546875 253.480469 104.722656 251.929688 105.039062 C 250.738281 105.28125 249.570312 105.640625 248.429688 106.0625 C 245.886719 107 243.378906 108.078125 240.960938 109.292969 C 233.917969 112.828125 227.269531 117.4375 221.277344 122.527344 C 217.894531 125.398438 214.792969 128.589844 211.984375 132.027344 C 209.890625 134.59375 207.835938 137.195312 205.835938 139.839844 C 204.71875 141.316406 203.636719 142.835938 202.726562 144.453125 C 201.796875 146.097656 201.117188 147.867188 200.394531 149.609375 C 200.097656 150.324219 199.832031 151.046875 199.632812 151.792969 C 199.144531 153.609375 198.957031 155.539062 198.761719 157.390625 C 198.679688 158.171875 198.652344 158.953125 198.679688 159.738281 C 198.753906 161.59375 199.070312 163.460938 199.355469 165.285156 C 199.550781 166.519531 199.855469 167.742188 200.28125 168.921875 C 200.890625 170.605469 201.585938 172.273438 202.382812 173.878906 C 202.742188 174.59375 203.148438 175.285156 203.605469 175.941406 C 204.660156 177.453125 205.78125 178.964844 207.054688 180.304688 C 208.417969 181.742188 210.078125 182.902344 211.652344 184.074219 C 213.132812 185.015625 214.726562 185.523438 216.441406 185.601562 C 218.152344 185.984375 219.863281 185.910156 221.578125 185.371094 C 223.253906 184.972656 224.710938 184.207031 225.957031 183.066406 C 227.359375 182.15625 228.464844 180.953125 229.273438 179.453125 C 230.851562 176.464844 231.644531 172.84375 230.570312 169.53125 C 230.140625 168.503906 229.707031 167.480469 229.273438 166.453125 C 228.128906 164.519531 226.589844 162.976562 224.652344 161.832031 Z M 224.652344 161.839844 " fill-opacity="1" fill-rule="nonzero"/></g><path fill="#d9d4ff" d="M 218.152344 172.96875 C 212.070312 168.511719 211.613281 161.148438 211.558594 159.710938 C 211.320312 153.21875 214.914062 148.785156 220.917969 141.367188 C 229.015625 131.371094 237.210938 126.355469 242.691406 123.074219 C 253.070312 116.859375 257.457031 116.980469 259.71875 117.296875 C 260.808594 117.453125 265.285156 118.191406 269.132812 121.691406 C 275.28125 127.289062 275.585938 136.125 275.730469 140.199219 C 277.675781 195.082031 277.5 200.386719 277.074219 208.753906 C 275.648438 236.703125 275.1875 247.628906 266.480469 253.863281 C 262.6875 256.574219 258.597656 257.492188 255.605469 257.828125 C 253.371094 257.410156 250.273438 256.511719 247.320312 254.34375 C 235.222656 245.472656 236.921875 223.734375 238.515625 206.132812 C 240.613281 182.921875 243.589844 163.136719 243.589844 163.136719 C 243.589844 163.136719 237.503906 174.75 228.199219 175.9375 C 223.09375 176.585938 218.925781 173.535156 218.152344 172.96875 Z M 218.152344 172.96875 " fill-opacity="1" fill-rule="nonzero"/><path fill="#004aad" d="M 219.308594 170.992188 C 218.980469 170.746094 219.390625 171.074219 219.082031 170.8125 C 218.921875 170.675781 218.757812 170.539062 218.597656 170.394531 C 218.238281 170.070312 217.898438 169.730469 217.574219 169.375 C 217.4375 169.226562 217.304688 169.074219 217.175781 168.921875 C 217.078125 168.804688 216.808594 168.453125 217.042969 168.769531 C 216.777344 168.414062 216.523438 168.046875 216.285156 167.667969 C 215.867188 167.007812 215.515625 166.3125 215.183594 165.605469 C 214.996094 165.199219 215.308594 165.933594 215.148438 165.523438 C 215.085938 165.371094 215.023438 165.214844 214.96875 165.058594 C 214.835938 164.710938 214.71875 164.355469 214.609375 164 C 214.425781 163.40625 214.273438 162.800781 214.148438 162.1875 C 214.097656 161.941406 214.054688 161.691406 214.011719 161.445312 C 213.988281 161.308594 213.972656 161.175781 213.949219 161.042969 C 213.933594 160.953125 214.019531 161.640625 213.964844 161.175781 C 213.871094 160.3125 213.816406 159.453125 213.847656 158.585938 C 213.859375 158.222656 213.894531 157.859375 213.921875 157.496094 C 213.929688 157.382812 213.988281 157.050781 213.90625 157.574219 C 213.917969 157.484375 213.929688 157.398438 213.945312 157.308594 C 213.980469 157.105469 214.015625 156.902344 214.058594 156.699219 C 214.210938 155.949219 214.425781 155.214844 214.691406 154.496094 C 214.75 154.328125 214.816406 154.160156 214.882812 153.992188 C 215.046875 153.582031 214.746094 154.277344 214.9375 153.875 C 215.121094 153.484375 215.304688 153.09375 215.507812 152.710938 C 215.902344 151.960938 216.339844 151.230469 216.800781 150.519531 C 217.308594 149.742188 217.839844 148.988281 218.390625 148.242188 C 218.660156 147.875 218.9375 147.507812 219.21875 147.144531 C 219.210938 147.152344 219.445312 146.847656 219.328125 147 C 219.207031 147.15625 219.449219 146.84375 219.441406 146.855469 C 219.644531 146.597656 219.847656 146.339844 220.050781 146.082031 C 221.492188 144.261719 222.941406 142.4375 224.476562 140.691406 C 227.207031 137.578125 230.199219 134.699219 233.421875 132.101562 C 233.75 131.839844 234.078125 131.578125 234.40625 131.320312 C 234.109375 131.554688 234.488281 131.257812 234.59375 131.179688 C 234.804688 131.019531 235.019531 130.859375 235.230469 130.699219 C 235.902344 130.203125 236.578125 129.71875 237.261719 129.242188 C 238.496094 128.382812 239.753906 127.5625 241.03125 126.765625 C 243.972656 124.929688 246.96875 123.144531 250.121094 121.6875 C 250.46875 121.523438 250.820312 121.371094 251.171875 121.214844 C 251.585938 121.035156 250.882812 121.332031 251.289062 121.164062 C 251.503906 121.082031 251.714844 120.992188 251.929688 120.910156 C 252.550781 120.667969 253.183594 120.441406 253.820312 120.242188 C 254.800781 119.933594 255.792969 119.703125 256.808594 119.535156 C 257.296875 119.453125 256.285156 119.585938 256.636719 119.558594 C 256.730469 119.550781 256.820312 119.535156 256.914062 119.527344 C 257.101562 119.507812 257.289062 119.496094 257.480469 119.484375 C 257.8125 119.46875 258.144531 119.464844 258.472656 119.472656 C 258.753906 119.484375 259.027344 119.507812 259.304688 119.535156 C 259.371094 119.542969 259.4375 119.550781 259.503906 119.558594 C 259.800781 119.582031 258.820312 119.453125 259.109375 119.503906 C 259.261719 119.53125 259.414062 119.550781 259.570312 119.574219 C 260.785156 119.785156 261.980469 120.125 263.128906 120.578125 C 263.21875 120.609375 263.304688 120.648438 263.394531 120.683594 C 262.976562 120.519531 263.304688 120.644531 263.386719 120.683594 C 263.574219 120.769531 263.761719 120.855469 263.945312 120.945312 C 264.363281 121.148438 264.777344 121.371094 265.183594 121.609375 C 265.613281 121.863281 266.035156 122.136719 266.441406 122.425781 C 266.839844 122.710938 266.957031 122.808594 267.421875 123.222656 C 268.109375 123.84375 268.742188 124.519531 269.320312 125.238281 C 269.484375 125.445312 269.300781 125.214844 269.277344 125.183594 C 269.359375 125.292969 269.4375 125.402344 269.519531 125.515625 C 269.636719 125.679688 269.75 125.847656 269.863281 126.015625 C 270.105469 126.378906 270.328125 126.753906 270.542969 127.132812 C 270.757812 127.511719 270.953125 127.886719 271.140625 128.273438 C 271.226562 128.453125 271.304688 128.628906 271.386719 128.808594 C 271.402344 128.839844 271.53125 129.140625 271.425781 128.894531 C 271.316406 128.644531 271.476562 129.023438 271.492188 129.066406 C 271.796875 129.832031 272.058594 130.613281 272.28125 131.40625 C 272.496094 132.167969 272.675781 132.9375 272.828125 133.710938 C 272.898438 134.082031 272.964844 134.453125 273.023438 134.828125 C 273.046875 134.996094 273.074219 135.164062 273.097656 135.328125 C 273.15625 135.734375 273.050781 134.917969 273.113281 135.460938 C 273.257812 136.710938 273.347656 137.960938 273.402344 139.21875 C 273.738281 147.234375 273.96875 155.253906 274.230469 163.273438 C 274.421875 169.195312 274.605469 175.117188 274.761719 181.042969 C 274.867188 184.972656 274.960938 188.90625 275.015625 192.839844 C 275.050781 195.371094 275.074219 197.902344 275.050781 200.429688 C 275.039062 202.132812 275 203.839844 274.933594 205.542969 C 274.800781 208.980469 274.601562 212.414062 274.417969 215.851562 C 274.21875 219.585938 274.011719 223.320312 273.726562 227.050781 C 273.605469 228.625 273.472656 230.199219 273.3125 231.769531 C 273.238281 232.488281 273.15625 233.207031 273.070312 233.925781 C 273.03125 234.269531 272.984375 234.613281 272.941406 234.957031 C 272.910156 235.21875 272.972656 234.730469 272.972656 234.734375 C 272.972656 234.808594 272.949219 234.890625 272.941406 234.964844 C 272.914062 235.144531 272.890625 235.320312 272.867188 235.496094 C 272.53125 237.824219 272.101562 240.148438 271.449219 242.410156 C 271.171875 243.367188 270.84375 244.308594 270.476562 245.238281 C 270.339844 245.582031 270.429688 245.277344 270.539062 245.09375 C 270.476562 245.195312 270.4375 245.328125 270.390625 245.4375 C 270.292969 245.648438 270.199219 245.855469 270.097656 246.0625 C 269.902344 246.464844 269.691406 246.859375 269.46875 247.25 C 269.246094 247.636719 269.023438 247.996094 268.777344 248.355469 C 268.65625 248.53125 268.535156 248.707031 268.40625 248.878906 C 268.351562 248.957031 268.289062 249.035156 268.230469 249.117188 C 268.191406 249.171875 268.601562 248.65625 268.320312 249 C 267.777344 249.65625 267.207031 250.28125 266.578125 250.855469 C 266.257812 251.144531 265.925781 251.417969 265.59375 251.691406 C 265.3125 251.925781 266.035156 251.367188 265.734375 251.582031 C 265.652344 251.640625 265.574219 251.703125 265.492188 251.761719 C 265.085938 252.058594 264.671875 252.339844 264.246094 252.605469 C 263.820312 252.867188 263.382812 253.117188 262.9375 253.351562 C 262.683594 253.484375 262.429688 253.609375 262.175781 253.730469 C 262.066406 253.785156 261.957031 253.832031 261.847656 253.882812 C 261.761719 253.925781 261.515625 254.03125 261.742188 253.933594 C 260.847656 254.3125 259.921875 254.617188 258.984375 254.871094 C 258.140625 255.097656 257.285156 255.28125 256.421875 255.421875 C 256.242188 255.453125 256.054688 255.476562 255.875 255.507812 C 256.460938 255.410156 255.785156 255.542969 255.777344 255.515625 C 255.785156 255.542969 256.355469 255.640625 255.882812 255.550781 C 255.796875 255.535156 255.710938 255.515625 255.625 255.5 C 255.417969 255.453125 255.210938 255.40625 255 255.355469 C 254.136719 255.148438 253.28125 254.886719 252.445312 254.570312 C 252.359375 254.539062 251.851562 254.335938 252.152344 254.460938 C 251.9375 254.371094 251.726562 254.273438 251.511719 254.171875 C 250.996094 253.925781 250.492188 253.660156 249.996094 253.367188 C 249.550781 253.101562 249.113281 252.820312 248.691406 252.519531 C 248.597656 252.453125 248.503906 252.382812 248.410156 252.3125 C 248.347656 252.269531 248.058594 252.039062 248.304688 252.238281 C 248.535156 252.421875 248.089844 252.058594 248.011719 251.996094 C 247.460938 251.53125 246.933594 251.035156 246.4375 250.511719 C 246.210938 250.269531 245.988281 250.023438 245.773438 249.769531 C 245.648438 249.621094 245.527344 249.472656 245.40625 249.320312 C 245.074219 248.914062 245.53125 249.503906 245.304688 249.191406 C 244.882812 248.597656 244.472656 248 244.101562 247.375 C 243.726562 246.746094 243.375 246.082031 243.058594 245.414062 C 242.910156 245.101562 242.769531 244.785156 242.628906 244.46875 C 242.792969 244.832031 242.671875 244.566406 242.589844 244.367188 C 242.503906 244.148438 242.417969 243.929688 242.335938 243.707031 C 241.785156 242.230469 241.347656 240.714844 240.996094 239.175781 C 240.8125 238.378906 240.65625 237.574219 240.515625 236.765625 C 240.449219 236.386719 240.390625 236.007812 240.332031 235.625 C 240.304688 235.433594 240.277344 235.242188 240.25 235.046875 C 240.320312 235.546875 240.226562 234.847656 240.207031 234.6875 C 239.996094 232.964844 239.863281 231.230469 239.785156 229.5 C 239.457031 222.304688 240.011719 215.09375 240.644531 207.929688 C 241.40625 199.328125 242.316406 190.734375 243.355469 182.160156 C 243.757812 178.820312 244.179688 175.480469 244.625 172.144531 C 244.671875 171.800781 244.710938 171.453125 244.761719 171.113281 C 244.707031 171.472656 244.722656 171.40625 244.761719 171.113281 C 244.785156 170.941406 244.808594 170.769531 244.832031 170.597656 C 244.910156 170.007812 244.992188 169.417969 245.074219 168.828125 C 245.203125 167.894531 245.332031 166.960938 245.464844 166.027344 C 245.574219 165.265625 245.683594 164.503906 245.800781 163.738281 C 245.96875 162.597656 245.605469 161.515625 244.472656 161.039062 C 243.472656 160.617188 242.148438 160.960938 241.613281 161.976562 C 241.238281 162.6875 240.808594 163.375 240.367188 164.046875 C 239.890625 164.769531 239.40625 165.523438 238.84375 166.183594 C 238.871094 166.152344 239.1875 165.75 238.945312 166.050781 C 238.859375 166.164062 238.769531 166.273438 238.679688 166.386719 C 238.527344 166.578125 238.371094 166.765625 238.214844 166.953125 C 237.847656 167.382812 237.472656 167.808594 237.085938 168.21875 C 236.300781 169.054688 235.46875 169.847656 234.582031 170.574219 C 234.472656 170.664062 234.359375 170.75 234.253906 170.839844 C 233.988281 171.066406 234.695312 170.519531 234.246094 170.839844 C 234.015625 171.007812 233.789062 171.175781 233.554688 171.335938 C 233.039062 171.691406 232.503906 172.019531 231.953125 172.316406 C 231.703125 172.453125 231.445312 172.585938 231.1875 172.707031 C 231.03125 172.78125 230.875 172.851562 230.71875 172.921875 C 230.785156 172.894531 231.179688 172.742188 230.789062 172.890625 C 230.195312 173.113281 229.597656 173.320312 228.976562 173.46875 C 228.695312 173.539062 228.40625 173.597656 228.121094 173.648438 C 228.042969 173.660156 227.46875 173.710938 227.96875 173.671875 C 227.808594 173.683594 227.652344 173.699219 227.496094 173.710938 C 227.109375 173.734375 226.726562 173.738281 226.339844 173.726562 C 226.117188 173.71875 225.894531 173.699219 225.667969 173.683594 C 224.96875 173.628906 226.09375 173.769531 225.410156 173.652344 C 224.605469 173.511719 223.8125 173.3125 223.039062 173.035156 C 222.890625 172.984375 222.742188 172.929688 222.59375 172.871094 C 222.035156 172.660156 222.789062 172.976562 222.386719 172.785156 C 222.085938 172.644531 221.785156 172.503906 221.488281 172.347656 C 220.730469 171.949219 220.007812 171.492188 219.316406 170.988281 C 218.347656 170.277344 216.71875 170.792969 216.183594 171.808594 C 215.554688 173 215.96875 174.183594 217.003906 174.941406 C 218.835938 176.277344 220.960938 177.308594 223.160156 177.851562 C 226.496094 178.679688 229.832031 178.273438 232.953125 176.910156 C 237.5 174.921875 241.078125 171.0625 243.855469 167.046875 C 244.472656 166.15625 245.070312 165.242188 245.574219 164.285156 C 244.179688 163.695312 242.785156 163.109375 241.386719 162.523438 C 240.886719 165.859375 240.4375 169.207031 239.996094 172.554688 C 238.964844 180.347656 238.035156 188.152344 237.222656 195.96875 C 236.371094 204.113281 235.515625 212.285156 235.210938 220.46875 C 234.941406 227.636719 235.089844 235.042969 236.992188 242.007812 C 238.808594 248.664062 242.617188 254.902344 248.992188 258.019531 C 250.769531 258.890625 252.644531 259.550781 254.585938 259.949219 C 256.429688 260.328125 258.613281 259.730469 260.414062 259.226562 C 263.839844 258.265625 267.0625 256.570312 269.710938 254.1875 C 272.742188 251.460938 274.628906 247.773438 275.785156 243.910156 C 277.371094 238.59375 277.851562 232.9375 278.28125 227.429688 C 278.796875 220.859375 279.101562 214.273438 279.421875 207.691406 C 279.5 206.128906 279.5625 204.5625 279.597656 202.992188 C 279.644531 200.84375 279.652344 198.6875 279.640625 196.535156 C 279.617188 193.183594 279.554688 189.832031 279.480469 186.480469 C 279.363281 181.265625 279.214844 176.050781 279.054688 170.832031 C 278.816406 163.171875 278.558594 155.507812 278.292969 147.84375 C 278.050781 140.925781 278.363281 133.628906 275.617188 127.125 C 274 123.292969 271.347656 120.015625 267.789062 117.824219 C 265.285156 116.285156 262.46875 115.34375 259.5625 114.980469 C 254.980469 114.40625 250.296875 116.449219 246.3125 118.449219 C 240.085938 121.578125 234.082031 125.519531 228.773438 130.03125 C 225.390625 132.902344 222.289062 136.089844 219.484375 139.527344 C 216.804688 142.808594 213.96875 146.105469 211.878906 149.808594 C 210.164062 152.851562 209.140625 156.234375 209.277344 159.75 C 209.363281 161.902344 209.769531 164.089844 210.5 166.117188 C 211.792969 169.691406 213.953125 172.671875 217.003906 174.941406 C 217.96875 175.660156 219.601562 175.132812 220.136719 174.121094 C 220.769531 172.921875 220.347656 171.753906 219.316406 170.988281 Z M 219.308594 170.992188 " fill-opacity="1" fill-rule="nonzero"/><path fill="#ffffff" d="M 180.191406 184.722656 C 179.703125 182.980469 178.824219 181.472656 177.550781 180.1875 C 176.855469 179.652344 176.164062 179.117188 175.46875 178.582031 C 173.867188 177.652344 172.140625 177.1875 170.285156 177.179688 C 162.75 177.199219 155.214844 177.21875 147.679688 177.242188 C 147.671875 174.53125 147.664062 171.824219 147.65625 169.117188 C 147.644531 164.304688 147.628906 159.496094 147.617188 154.6875 C 147.671875 153.273438 147.375 151.953125 146.734375 150.730469 C 146.320312 149.457031 145.609375 148.355469 144.609375 147.421875 C 143.679688 146.421875 142.574219 145.714844 141.300781 145.300781 C 140.078125 144.65625 138.757812 144.359375 137.34375 144.414062 C 136.433594 144.535156 135.523438 144.660156 134.613281 144.78125 C 132.871094 145.269531 131.359375 146.148438 130.078125 147.425781 C 129.542969 148.117188 129.007812 148.808594 128.472656 149.503906 C 127.542969 151.105469 127.074219 152.835938 127.070312 154.6875 C 127.089844 162.222656 127.109375 169.761719 127.128906 177.296875 C 124.421875 177.304688 121.714844 177.3125 119.003906 177.316406 C 114.195312 177.332031 109.386719 177.34375 104.578125 177.355469 C 103.164062 177.304688 101.84375 177.597656 100.621094 178.242188 C 99.34375 178.65625 98.242188 179.363281 97.3125 180.363281 C 96.3125 181.296875 95.601562 182.398438 95.1875 183.671875 C 94.546875 184.894531 94.25 186.214844 94.304688 187.628906 C 94.425781 188.542969 94.546875 189.453125 94.671875 190.363281 C 95.160156 192.101562 96.039062 193.613281 97.3125 194.894531 C 98.007812 195.429688 98.699219 195.96875 99.394531 196.503906 C 100.996094 197.433594 102.722656 197.898438 104.578125 197.90625 C 112.113281 197.886719 119.648438 197.863281 127.183594 197.84375 C 127.191406 200.554688 127.199219 203.261719 127.207031 205.96875 C 127.21875 210.777344 127.234375 215.585938 127.246094 220.394531 C 127.191406 221.808594 127.488281 223.128906 128.128906 224.355469 C 128.542969 225.628906 129.253906 226.730469 130.253906 227.660156 C 131.183594 228.664062 132.289062 229.371094 133.5625 229.785156 C 134.785156 230.429688 136.105469 230.726562 137.519531 230.671875 C 138.429688 230.546875 139.339844 230.425781 140.25 230.304688 C 141.992188 229.816406 143.503906 228.933594 144.785156 227.660156 C 145.320312 226.96875 145.855469 226.273438 146.390625 225.582031 C 147.320312 223.980469 147.789062 222.25 147.796875 220.394531 C 147.773438 212.859375 147.753906 205.324219 147.734375 197.789062 C 150.441406 197.78125 153.152344 197.773438 155.859375 197.765625 C 160.667969 197.753906 165.476562 197.742188 170.285156 197.730469 C 171.699219 197.78125 173.019531 197.488281 174.246094 196.84375 C 175.519531 196.429688 176.621094 195.722656 177.550781 194.71875 C 178.554688 193.789062 179.261719 192.6875 179.675781 191.414062 C 180.320312 190.1875 180.613281 188.871094 180.558594 187.453125 C 180.4375 186.542969 180.316406 185.632812 180.191406 184.722656 Z M 180.191406 184.722656 " fill-opacity="1" fill-rule="nonzero"/><g clip-path="url(#1d83176858)"><path fill="#ffffff" d="M 137.1875 240.09375 C 134.628906 240.09375 132.183594 239.554688 129.894531 238.476562 C 127.503906 237.578125 125.390625 236.183594 123.59375 234.324219 C 121.730469 232.527344 120.335938 230.414062 119.4375 228.023438 C 118.296875 225.59375 117.757812 222.988281 117.828125 220.265625 L 117.792969 207.289062 L 104.574219 207.324219 L 104.546875 207.324219 C 101.03125 207.3125 97.707031 206.414062 94.667969 204.648438 L 94.128906 204.335938 L 91.066406 201.972656 L 90.628906 201.535156 C 88.21875 199.105469 86.527344 196.203125 85.601562 192.90625 L 85.421875 192.269531 L 84.90625 188.4375 L 84.890625 187.984375 C 84.785156 185.179688 85.324219 182.5 86.496094 180.003906 C 87.394531 177.613281 88.789062 175.5 90.648438 173.703125 C 92.445312 171.84375 94.5625 170.449219 96.949219 169.550781 C 99.378906 168.410156 101.984375 167.867188 104.707031 167.9375 L 117.683594 167.902344 L 117.648438 154.6875 L 117.648438 154.660156 C 117.660156 151.140625 118.558594 147.816406 120.324219 144.777344 L 120.636719 144.238281 L 123 141.175781 L 123.4375 140.742188 C 125.867188 138.328125 128.769531 136.636719 132.066406 135.710938 L 132.703125 135.535156 L 136.535156 135.019531 L 136.988281 135.003906 C 139.792969 134.898438 142.472656 135.4375 144.96875 136.605469 C 147.359375 137.507812 149.472656 138.902344 151.269531 140.761719 C 153.128906 142.558594 154.523438 144.671875 155.425781 147.0625 C 156.5625 149.492188 157.105469 152.097656 157.035156 154.820312 L 157.070312 167.796875 L 170.285156 167.761719 L 170.3125 167.761719 C 173.832031 167.773438 177.15625 168.671875 180.195312 170.4375 L 180.734375 170.75 L 183.796875 173.113281 L 184.230469 173.550781 C 186.644531 175.980469 188.335938 178.882812 189.261719 182.179688 L 189.4375 182.816406 L 189.953125 186.648438 L 189.96875 187.101562 C 190.074219 189.90625 189.535156 192.585938 188.367188 195.082031 C 187.464844 197.472656 186.074219 199.585938 184.210938 201.382812 C 182.414062 203.242188 180.300781 204.636719 177.910156 205.539062 C 175.480469 206.675781 172.875 207.21875 170.152344 207.148438 L 157.175781 207.183594 L 157.210938 220.402344 L 157.210938 220.429688 C 157.199219 223.945312 156.300781 227.269531 154.539062 230.308594 L 154.226562 230.847656 L 151.859375 233.910156 L 151.421875 234.347656 C 148.992188 236.757812 146.089844 238.449219 142.792969 239.375 L 142.15625 239.550781 L 138.324219 240.066406 L 137.875 240.085938 C 137.644531 240.09375 137.414062 240.097656 137.183594 240.097656 Z M 136.9375 220.980469 L 137.234375 221.078125 L 137.429688 221.179688 L 137.945312 221.109375 L 138.359375 220.574219 C 138.371094 220.515625 138.375 220.457031 138.375 220.382812 L 138.289062 188.398438 L 170.234375 188.3125 L 170.570312 188.136719 L 170.867188 188.039062 L 170.964844 187.738281 L 171.070312 187.542969 L 171 187.03125 L 170.460938 186.613281 C 170.40625 186.605469 170.34375 186.597656 170.273438 186.597656 L 138.285156 186.683594 L 138.199219 154.738281 L 138.023438 154.402344 L 137.925781 154.105469 L 137.628906 154.007812 L 137.429688 153.90625 L 136.917969 153.976562 L 136.503906 154.511719 C 136.492188 154.566406 136.488281 154.628906 136.484375 154.699219 L 136.570312 186.6875 L 104.625 186.777344 L 104.292969 186.953125 L 103.992188 187.046875 L 103.898438 187.347656 L 103.792969 187.542969 L 103.863281 188.054688 L 104.398438 188.472656 C 104.457031 188.484375 104.519531 188.488281 104.589844 188.488281 L 136.578125 188.402344 L 136.664062 220.347656 L 136.839844 220.683594 Z M 136.9375 220.980469 " fill-opacity="1" fill-rule="nonzero"/></g><path fill="#d9d4ff" d="M 180.191406 184.722656 C 179.703125 182.980469 178.824219 181.472656 177.550781 180.1875 C 176.855469 179.652344 176.164062 179.117188 175.46875 178.582031 C 173.867188 177.652344 172.140625 177.1875 170.285156 177.179688 C 162.75 177.199219 155.214844 177.21875 147.679688 177.242188 C 147.671875 174.53125 147.664062 171.824219 147.65625 169.117188 C 147.644531 164.304688 147.628906 159.496094 147.617188 154.6875 C 147.671875 153.273438 147.375 151.953125 146.734375 150.730469 C 146.320312 149.457031 145.609375 148.355469 144.609375 147.421875 C 143.679688 146.421875 142.574219 145.714844 141.300781 145.300781 C 140.078125 144.65625 138.757812 144.359375 137.34375 144.414062 C 136.433594 144.535156 135.523438 144.660156 134.613281 144.78125 C 132.871094 145.269531 131.359375 146.148438 130.078125 147.425781 C 129.542969 148.117188 129.007812 148.808594 128.472656 149.503906 C 127.542969 151.105469 127.074219 152.835938 127.070312 154.6875 C 127.089844 162.222656 127.109375 169.761719 127.128906 177.296875 C 124.421875 177.304688 121.714844 177.3125 119.003906 177.316406 C 114.195312 177.332031 109.386719 177.34375 104.578125 177.355469 C 103.164062 177.304688 101.84375 177.597656 100.621094 178.242188 C 99.34375 178.65625 98.242188 179.363281 97.3125 180.363281 C 96.3125 181.296875 95.601562 182.398438 95.1875 183.671875 C 94.546875 184.894531 94.25 186.214844 94.304688 187.628906 C 94.425781 188.542969 94.546875 189.453125 94.671875 190.363281 C 95.160156 192.101562 96.039062 193.613281 97.3125 194.894531 C 98.007812 195.429688 98.699219 195.96875 99.394531 196.503906 C 100.996094 197.433594 102.722656 197.898438 104.578125 197.90625 C 112.113281 197.886719 119.648438 197.863281 127.183594 197.84375 C 127.191406 200.554688 127.199219 203.261719 127.207031 205.96875 C 127.21875 210.777344 127.234375 215.585938 127.246094 220.394531 C 127.191406 221.808594 127.488281 223.128906 128.128906 224.355469 C 128.542969 225.628906 129.253906 226.730469 130.253906 227.660156 C 131.183594 228.664062 132.289062 229.371094 133.5625 229.785156 C 134.785156 230.429688 136.105469 230.726562 137.519531 230.671875 C 138.429688 230.546875 139.339844 230.425781 140.25 230.304688 C 141.992188 229.816406 143.503906 228.933594 144.785156 227.660156 C 145.320312 226.96875 145.855469 226.273438 146.390625 225.582031 C 147.320312 223.980469 147.789062 222.25 147.796875 220.394531 C 147.773438 212.859375 147.753906 205.324219 147.734375 197.789062 C 150.441406 197.78125 153.152344 197.773438 155.859375 197.765625 C 160.667969 197.753906 165.476562 197.742188 170.285156 197.730469 C 171.699219 197.78125 173.019531 197.488281 174.246094 196.84375 C 175.519531 196.429688 176.621094 195.722656 177.550781 194.71875 C 178.554688 193.789062 179.261719 192.6875 179.675781 191.414062 C 180.320312 190.1875 180.613281 188.871094 180.558594 187.453125 C 180.4375 186.542969 180.316406 185.632812 180.191406 184.722656 Z M 180.191406 184.722656 " fill-opacity="1" fill-rule="nonzero"/><path fill="#004aad" d="M 137.199219 232.816406 C 135.621094 232.816406 134.117188 232.464844 132.726562 231.765625 C 131.203125 231.238281 129.863281 230.367188 128.738281 229.175781 C 127.546875 228.050781 126.675781 226.710938 126.152344 225.191406 C 125.398438 223.691406 125.046875 222.070312 125.105469 220.363281 L 125.050781 199.992188 L 104.582031 200.046875 C 102.34375 200.039062 100.242188 199.472656 98.316406 198.355469 L 98.195312 198.285156 L 95.894531 196.503906 L 95.792969 196.40625 C 94.265625 194.867188 93.195312 193.03125 92.609375 190.941406 L 92.566406 190.796875 L 92.167969 187.816406 L 92.164062 187.714844 C 92.097656 185.988281 92.449219 184.347656 93.210938 182.839844 C 93.734375 181.316406 94.605469 179.976562 95.796875 178.851562 C 96.921875 177.660156 98.261719 176.789062 99.785156 176.265625 C 101.28125 175.511719 102.902344 175.160156 104.613281 175.21875 L 124.984375 175.164062 L 124.925781 154.695312 C 124.933594 152.457031 125.503906 150.355469 126.617188 148.429688 L 126.6875 148.308594 L 128.46875 146.007812 L 128.566406 145.90625 C 130.105469 144.378906 131.945312 143.308594 134.03125 142.722656 L 134.175781 142.683594 L 137.15625 142.28125 L 137.261719 142.277344 C 138.984375 142.210938 140.625 142.5625 142.132812 143.324219 C 143.65625 143.847656 144.996094 144.71875 146.121094 145.910156 C 147.3125 147.035156 148.183594 148.375 148.707031 149.898438 C 149.460938 151.394531 149.8125 153.015625 149.753906 154.726562 L 149.808594 175.09375 L 170.277344 175.039062 C 172.515625 175.046875 174.617188 175.617188 176.542969 176.730469 L 176.664062 176.800781 L 178.96875 178.582031 L 179.066406 178.679688 C 180.59375 180.21875 181.664062 182.058594 182.25 184.144531 L 182.292969 184.289062 L 182.691406 187.269531 L 182.695312 187.375 C 182.761719 189.097656 182.410156 190.738281 181.652344 192.246094 C 181.125 193.769531 180.253906 195.109375 179.0625 196.234375 C 177.9375 197.425781 176.597656 198.296875 175.078125 198.820312 C 173.578125 199.574219 171.957031 199.925781 170.25 199.867188 L 149.878906 199.921875 L 149.933594 220.390625 C 149.925781 222.628906 149.355469 224.730469 148.242188 226.65625 L 148.171875 226.777344 L 146.390625 229.082031 L 146.292969 229.179688 C 144.753906 230.707031 142.917969 231.777344 140.828125 232.363281 L 140.683594 232.40625 L 137.703125 232.804688 L 137.597656 232.808594 C 137.464844 232.8125 137.328125 232.816406 137.195312 232.816406 Z M 129.320312 195.699219 L 129.386719 220.433594 L 129.382812 220.476562 C 129.34375 221.519531 129.554688 222.464844 130.023438 223.359375 L 130.109375 223.519531 L 130.164062 223.691406 C 130.46875 224.625 130.972656 225.410156 131.710938 226.09375 L 131.824219 226.207031 C 132.507812 226.941406 133.292969 227.449219 134.222656 227.75 L 134.394531 227.808594 L 134.554688 227.890625 C 135.425781 228.347656 136.335938 228.558594 137.34375 228.535156 L 139.808594 228.203125 C 141.101562 227.820312 142.207031 227.175781 143.179688 226.238281 L 144.605469 224.390625 C 145.304688 223.144531 145.648438 221.832031 145.652344 220.390625 L 145.585938 195.65625 L 170.320312 195.585938 L 170.363281 195.589844 C 171.410156 195.628906 172.351562 195.417969 173.246094 194.949219 L 173.40625 194.863281 L 173.582031 194.808594 C 174.511719 194.507812 175.296875 194 175.980469 193.261719 L 176.09375 193.152344 C 176.832031 192.464844 177.335938 191.679688 177.636719 190.75 L 177.695312 190.578125 L 177.777344 190.417969 C 178.234375 189.550781 178.445312 188.636719 178.421875 187.628906 L 178.089844 185.164062 C 177.707031 183.871094 177.0625 182.765625 176.125 181.792969 L 174.28125 180.367188 C 173.03125 179.667969 171.71875 179.324219 170.277344 179.320312 L 145.542969 179.386719 L 145.476562 154.652344 L 145.476562 154.609375 C 145.515625 153.5625 145.304688 152.621094 144.835938 151.726562 L 144.75 151.566406 L 144.695312 151.390625 C 144.394531 150.460938 143.886719 149.675781 143.148438 148.992188 L 143.039062 148.878906 C 142.355469 148.144531 141.570312 147.636719 140.636719 147.335938 L 140.464844 147.277344 L 140.304688 147.195312 C 139.4375 146.738281 138.523438 146.527344 137.519531 146.550781 L 135.050781 146.882812 C 133.757812 147.265625 132.652344 147.910156 131.679688 148.847656 L 130.253906 150.695312 C 129.554688 151.941406 129.210938 153.253906 129.207031 154.695312 L 129.273438 179.429688 L 104.539062 179.496094 L 104.496094 179.496094 C 103.453125 179.457031 102.507812 179.667969 101.613281 180.136719 L 101.453125 180.222656 L 101.28125 180.277344 C 100.347656 180.582031 99.566406 181.085938 98.878906 181.824219 L 98.769531 181.933594 C 98.03125 182.621094 97.523438 183.40625 97.222656 184.335938 L 97.167969 184.507812 L 97.082031 184.667969 C 96.625 185.539062 96.414062 186.449219 96.4375 187.457031 L 96.769531 189.921875 C 97.152344 191.214844 97.796875 192.320312 98.738281 193.292969 L 100.582031 194.71875 C 101.832031 195.417969 103.140625 195.761719 104.582031 195.765625 L 129.316406 195.699219 Z M 129.320312 195.699219 " fill-opacity="1" fill-rule="nonzero"/></svg>