<svg xmlns="http://www.w3.org/2000/svg" xmlns:xlink="http://www.w3.org/1999/xlink" width="500" zoomAndPan="magnify" viewBox="0 0 375 374.999991" height="500" preserveAspectRatio="xMidYMid meet" version="1.0"><defs><clipPath id="611593e22f"><path d="M 166 76.265625 L 209 76.265625 L 209 95 L 166 95 Z M 166 76.265625 " clip-rule="nonzero"/></clipPath><clipPath id="5aa0c9b2a2"><path d="M 94.34375 100 L 280.34375 100 L 280.34375 131 L 94.34375 131 Z M 94.34375 100 " clip-rule="nonzero"/></clipPath></defs><path fill="#ffffff" d="M 106.601562 136.410156 L 117.179688 284.734375 C 117.25 285.671875 117.40625 286.59375 117.652344 287.5 C 117.894531 288.40625 118.21875 289.285156 118.625 290.128906 C 119.035156 290.976562 119.515625 291.777344 120.070312 292.535156 C 120.628906 293.289062 121.25 293.988281 121.9375 294.628906 C 122.625 295.269531 123.367188 295.839844 124.160156 296.34375 C 124.953125 296.84375 125.785156 297.269531 126.660156 297.613281 C 127.53125 297.960938 128.429688 298.222656 129.351562 298.402344 C 130.273438 298.582031 131.203125 298.671875 132.144531 298.675781 L 242.84375 298.675781 C 243.785156 298.671875 244.714844 298.582031 245.636719 298.402344 C 246.558594 298.222656 247.457031 297.960938 248.328125 297.613281 C 249.203125 297.269531 250.035156 296.84375 250.828125 296.34375 C 251.625 295.839844 252.363281 295.269531 253.050781 294.628906 C 253.738281 293.988281 254.359375 293.289062 254.917969 292.535156 C 255.472656 291.777344 255.957031 290.976562 256.363281 290.128906 C 256.769531 289.285156 257.09375 288.40625 257.339844 287.5 C 257.582031 286.59375 257.738281 285.671875 257.808594 284.734375 L 268.386719 136.410156 Z M 145.425781 162.855469 L 151.433594 272.234375 L 139.414062 272.234375 L 133.40625 162.855469 Z M 193.503906 272.234375 L 181.484375 272.234375 L 181.484375 162.855469 L 193.503906 162.855469 Z M 235.574219 272.234375 L 223.554688 272.234375 L 229.5625 162.855469 L 241.582031 162.855469 Z M 235.574219 272.234375 " fill-opacity="1" fill-rule="nonzero"/><g clip-path="url(#611593e22f)"><path fill="#ffffff" d="M 208.527344 79.316406 L 208.527344 94.34375 L 166.460938 94.34375 L 166.460938 79.316406 C 166.460938 78.917969 166.535156 78.535156 166.6875 78.167969 C 166.839844 77.800781 167.058594 77.476562 167.339844 77.195312 C 167.621094 76.910156 167.945312 76.695312 168.316406 76.542969 C 168.683594 76.390625 169.066406 76.3125 169.464844 76.3125 L 205.523438 76.3125 C 205.921875 76.3125 206.304688 76.390625 206.671875 76.542969 C 207.042969 76.695312 207.367188 76.910156 207.648438 77.195312 C 207.929688 77.476562 208.148438 77.800781 208.300781 78.167969 C 208.453125 78.535156 208.527344 78.917969 208.527344 79.316406 Z M 208.527344 79.316406 " fill-opacity="1" fill-rule="nonzero"/></g><g clip-path="url(#5aa0c9b2a2)"><path fill="#ffffff" d="M 280.648438 109.367188 L 280.648438 121.386719 C 280.648438 121.980469 280.589844 122.566406 280.472656 123.144531 C 280.359375 123.726562 280.1875 124.289062 279.960938 124.835938 C 279.734375 125.382812 279.457031 125.902344 279.128906 126.394531 C 278.796875 126.886719 278.425781 127.34375 278.007812 127.761719 C 277.585938 128.179688 277.132812 128.554688 276.640625 128.882812 C 276.148438 129.210938 275.628906 129.488281 275.082031 129.714844 C 274.535156 129.941406 273.972656 130.113281 273.390625 130.230469 C 272.808594 130.34375 272.222656 130.402344 271.632812 130.402344 L 103.355469 130.402344 C 102.765625 130.402344 102.179688 130.34375 101.597656 130.230469 C 101.019531 130.113281 100.453125 129.941406 99.90625 129.714844 C 99.359375 129.488281 98.839844 129.210938 98.347656 128.882812 C 97.855469 128.554688 97.402344 128.179688 96.984375 127.761719 C 96.5625 127.34375 96.191406 126.886719 95.863281 126.394531 C 95.53125 125.902344 95.253906 125.382812 95.027344 124.835938 C 94.800781 124.289062 94.628906 123.726562 94.515625 123.144531 C 94.398438 122.566406 94.34375 121.980469 94.34375 121.386719 L 94.34375 109.367188 C 94.34375 108.777344 94.398438 108.1875 94.515625 107.609375 C 94.628906 107.027344 94.800781 106.464844 95.027344 105.917969 C 95.253906 105.371094 95.53125 104.851562 95.863281 104.359375 C 96.191406 103.867188 96.5625 103.410156 96.984375 102.992188 C 97.402344 102.574219 97.855469 102.199219 98.347656 101.871094 C 98.839844 101.542969 99.359375 101.265625 99.90625 101.039062 C 100.453125 100.8125 101.019531 100.640625 101.597656 100.527344 C 102.179688 100.410156 102.765625 100.351562 103.355469 100.351562 L 271.632812 100.351562 C 272.222656 100.351562 272.808594 100.410156 273.390625 100.527344 C 273.972656 100.640625 274.535156 100.8125 275.082031 101.039062 C 275.628906 101.265625 276.148438 101.542969 276.640625 101.871094 C 277.132812 102.199219 277.585938 102.574219 278.007812 102.992188 C 278.425781 103.410156 278.796875 103.867188 279.128906 104.359375 C 279.457031 104.851562 279.734375 105.371094 279.960938 105.917969 C 280.1875 106.464844 280.359375 107.027344 280.472656 107.609375 C 280.589844 108.1875 280.648438 108.777344 280.648438 109.367188 Z M 280.648438 109.367188 " fill-opacity="1" fill-rule="nonzero"/></g></svg>